<mxfile host="app.diagrams.net" modified="2023-05-10T12:02:46.544Z" agent="Mozilla/5.0 (X11; Linux x86_64) AppleWebKit/537.36 (KHTML, like Gecko) Chrome/113.0.0.0 Safari/537.36" version="21.2.9" etag="oDGSrznt3cb61NhsumQZ" type="github">
  <diagram name="Page-1" id="Z87L5M1ymdMCWzEoOE4q">
    <mxGraphModel>
      <root>
        <mxCell id="0" />
        <mxCell id="1" parent="0" />
      </root>
    </mxGraphModel>
  </diagram>
</mxfile>
